<?xml version="1.0" encoding="UTF-8" standalone="no"?>
<!DOCTYPE svg PUBLIC "-//W3C//DTD SVG 1.1//EN" "http://www.w3.org/Graphics/SVG/1.1/DTD/svg11.dtd">
<svg width="100%" height="100%" viewBox="0 0 80 70" version="1.1" xmlns="http://www.w3.org/2000/svg" xmlns:xlink="http://www.w3.org/1999/xlink" xml:space="preserve" xmlns:serif="http://www.serif.com/" style="fill-rule:evenodd;clip-rule:evenodd;stroke-linejoin:round;stroke-miterlimit:2;">
    <g transform="matrix(1,0,0,1,-318.63,-271)">
        <g id="Citizens-providing-ideas---DIAGRAM" serif:id="Citizens providing ideas – DIAGRAM" transform="matrix(0.612282,0,0,0.903226,258.626,284.548)">
            <rect x="98" y="-15" width="130.659" height="77.5" style="fill:none;"/>
            <g id="Citizens-providing-ideas-Info" serif:id="Citizens providing ideas Info" transform="matrix(1.63323,0,0,1.10714,-604.265,-516.593)">
                <g transform="matrix(1,0,0,1,470.2,480.43)">
                    <path d="M0,16.455C-9.369,16.455 -17.808,10.822 -22.021,1.756C-22.282,1.193 -22.037,0.524 -21.475,0.263C-20.911,0 -20.243,0.246 -19.982,0.809C-16.142,9.073 -8.485,14.207 0,14.207C8.485,14.207 16.142,9.073 19.981,0.809C20.243,0.246 20.911,0 21.475,0.263C22.037,0.524 22.282,1.193 22.02,1.756C17.808,10.822 9.369,16.455 0,16.455" style="fill:rgb(255,122,93);fill-rule:nonzero;"/>
                </g>
                <g transform="matrix(1,0,0,1,465.004,458.992)">
                    <path d="M0,3.601L10.392,3.601L5.196,0L0,3.601Z" style="fill:rgb(255,122,93);fill-rule:nonzero;"/>
                </g>
                <g transform="matrix(1,0,0,1,470.2,480.66)">
                    <path d="M0,-25.139C-6.942,-25.139 -12.569,-19.511 -12.569,-12.57C-12.569,-5.628 -6.942,0 0,0C6.942,0 12.569,-5.628 12.569,-12.57C12.569,-19.511 6.942,-25.139 0,-25.139M8.119,-5.434L-8.119,-5.434L-8.119,-6.985L8.119,-6.985L8.119,-5.434ZM-6.965,-14.487L-7.254,-15.705L-3.333,-15.705L-3.623,-14.487C-3.69,-14.289 -3.976,-14.146 -4.323,-14.114L-4.323,-9.451C-3.978,-9.422 -3.692,-9.281 -3.626,-9.085L-3.333,-7.858L-7.254,-7.858L-6.962,-9.085C-6.9,-9.269 -6.643,-9.404 -6.327,-9.445L-6.327,-14.12C-6.645,-14.164 -6.902,-14.301 -6.965,-14.487M-1.671,-14.487L-1.96,-15.705L1.961,-15.705L1.671,-14.487C1.604,-14.289 1.318,-14.146 0.971,-14.114L0.971,-9.451C1.316,-9.422 1.602,-9.281 1.668,-9.085L1.961,-7.858L-1.96,-7.858L-1.668,-9.085C-1.606,-9.269 -1.35,-9.404 -1.033,-9.445L-1.033,-14.12C-1.351,-14.164 -1.608,-14.301 -1.671,-14.487M3.672,-14.487L3.382,-15.705L7.303,-15.705L7.013,-14.487C6.947,-14.289 6.661,-14.146 6.314,-14.114L6.314,-9.451C6.659,-9.422 6.944,-9.281 7.01,-9.085L7.303,-7.858L3.382,-7.858L3.675,-9.085C3.737,-9.269 3.993,-9.404 4.31,-9.445L4.31,-14.12C3.991,-14.164 3.735,-14.301 3.672,-14.487M8.119,-16.723L-8.119,-16.723L-8.119,-17.767L0,-23.394L8.119,-17.767L8.119,-16.723Z" style="fill:rgb(255,122,93);fill-rule:nonzero;"/>
                </g>
                <g transform="matrix(1,0,0,1,441.083,503.333)">
                    <path d="M0,-11.865L-9.702,-11.865C-10.3,-11.865 -10.784,-11.381 -10.784,-10.783L-10.784,-1.081C-10.784,-0.484 -10.3,0 -9.702,0L0,0C0.597,0 1.082,-0.484 1.082,-1.081L1.082,-10.783C1.082,-11.381 0.597,-11.865 0,-11.865M-4.851,-10.657C-3.849,-10.657 -3.036,-9.845 -3.036,-8.843C-3.036,-7.841 -3.849,-7.028 -4.851,-7.028C-5.853,-7.028 -6.666,-7.841 -6.666,-8.843C-6.666,-9.845 -5.853,-10.657 -4.851,-10.657M-1.878,-1.207L-7.825,-1.207L-7.825,-4.073C-7.825,-5.332 -6.858,-6.352 -5.665,-6.352L-3.93,-6.352C-2.738,-6.352 -1.878,-5.332 -1.878,-4.073L-1.878,-1.207Z" style="fill:rgb(255,122,93);fill-rule:nonzero;"/>
                </g>
                <g transform="matrix(1,0,0,1,461.078,520.583)">
                    <path d="M0,-11.866L-9.702,-11.866C-10.3,-11.866 -10.784,-11.382 -10.784,-10.785L-10.784,-1.082C-10.784,-0.485 -10.3,0 -9.702,0L0,0C0.597,0 1.082,-0.485 1.082,-1.082L1.082,-10.785C1.082,-11.382 0.597,-11.866 0,-11.866M-4.851,-10.658C-3.849,-10.658 -3.036,-9.846 -3.036,-8.844C-3.036,-7.842 -3.849,-7.029 -4.851,-7.029C-5.853,-7.029 -6.666,-7.842 -6.666,-8.844C-6.666,-9.846 -5.853,-10.658 -4.851,-10.658M-1.878,-1.208L-7.825,-1.208L-7.825,-4.074C-7.825,-5.333 -6.858,-6.353 -5.665,-6.353L-3.93,-6.353C-2.738,-6.353 -1.878,-5.333 -1.878,-4.074L-1.878,-1.208Z" style="fill:rgb(255,122,93);fill-rule:nonzero;"/>
                </g>
                <g transform="matrix(1,0,0,1,488.818,520.583)">
                    <path d="M0,-11.866L-9.702,-11.866C-10.3,-11.866 -10.784,-11.382 -10.784,-10.785L-10.784,-1.082C-10.784,-0.485 -10.3,0 -9.702,0L0,0C0.597,0 1.082,-0.485 1.082,-1.082L1.082,-10.785C1.082,-11.382 0.597,-11.866 0,-11.866M-4.851,-10.658C-3.849,-10.658 -3.036,-9.846 -3.036,-8.844C-3.036,-7.842 -3.849,-7.029 -4.851,-7.029C-5.853,-7.029 -6.666,-7.842 -6.666,-8.844C-6.666,-9.846 -5.853,-10.658 -4.851,-10.658M-1.878,-1.208L-7.825,-1.208L-7.825,-4.074C-7.825,-5.333 -6.858,-6.353 -5.665,-6.353L-3.93,-6.353C-2.738,-6.353 -1.878,-5.333 -1.878,-4.074L-1.878,-1.208Z" style="fill:rgb(255,122,93);fill-rule:nonzero;"/>
                </g>
                <g transform="matrix(1,0,0,1,508.588,503.333)">
                    <path d="M0,-11.865L-9.702,-11.865C-10.3,-11.865 -10.784,-11.381 -10.784,-10.783L-10.784,-1.081C-10.784,-0.484 -10.3,0 -9.702,0L0,0C0.597,0 1.082,-0.484 1.082,-1.081L1.082,-10.783C1.082,-11.381 0.597,-11.865 0,-11.865M-4.851,-10.657C-3.849,-10.657 -3.036,-9.845 -3.036,-8.843C-3.036,-7.841 -3.849,-7.028 -4.851,-7.028C-5.853,-7.028 -6.666,-7.841 -6.666,-8.843C-6.666,-9.845 -5.853,-10.657 -4.851,-10.657M-1.878,-1.207L-7.825,-1.207L-7.825,-4.073C-7.825,-5.332 -6.858,-6.352 -5.665,-6.352L-3.93,-6.352C-2.737,-6.352 -1.878,-5.332 -1.878,-4.073L-1.878,-1.207Z" style="fill:rgb(255,122,93);fill-rule:nonzero;"/>
                </g>
                <g transform="matrix(1,0,0,1,0,139.206)">
                    <rect x="469.555" y="346.105" width="1" height="10.474" style="fill:rgb(255,122,93);"/>
                </g>
                <g transform="matrix(1,0,0,1,467.562,481.723)">
                    <path d="M0,4.317L2.493,0L4.986,4.317L0,4.317Z" style="fill:rgb(255,122,93);fill-rule:nonzero;"/>
                </g>
                <g transform="matrix(-0.505796,-0.862653,-0.862653,0.505796,450.538,497.932)">
                    <rect x="3.656" y="-2.095" width="1.003" height="10.228" style="fill:rgb(255,122,93);"/>
                </g>
                <g transform="matrix(1,0,0,1,448.351,495.768)">
                    <path d="M0,-4.265L4.985,-4.3L2.523,0.035L0,-4.265Z" style="fill:rgb(255,122,93);fill-rule:nonzero;"/>
                </g>
                <g transform="matrix(-0.928821,-0.37053,-0.37053,0.928821,461.026,500.865)">
                    <rect x="0.841" y="-0.162" width="1.001" height="9.752" style="fill:rgb(255,122,93);"/>
                </g>
                <g transform="matrix(1,0,0,1,457.255,498.732)">
                    <path d="M0,1.239L3.915,-1.847L4.631,3.086L0,1.239Z" style="fill:rgb(255,122,93);fill-rule:nonzero;"/>
                </g>
                <g transform="matrix(-0.862507,-0.506046,-0.506046,0.862507,492.491,491.164)">
                    <rect x="-9.272" y="2.519" width="10.229" height="1" style="fill:rgb(255,122,93);"/>
                </g>
                <g transform="matrix(1,0,0,1,489.506,491.468)">
                    <path d="M0,4.335L-2.462,0L2.523,0.035L0,4.335Z" style="fill:rgb(255,122,93);fill-rule:nonzero;"/>
                </g>
                <g transform="matrix(-0.370577,-0.928802,-0.928802,0.370577,486.229,501.753)">
                    <rect x="-6.218" y="4.215" width="9.753" height="1" style="fill:rgb(255,122,93);"/>
                </g>
                <g transform="matrix(1,0,0,1,478.495,496.885)">
                    <path d="M0,4.934L0.716,0L4.631,3.087L0,4.934Z" style="fill:rgb(255,122,93);fill-rule:nonzero;"/>
                </g>
            </g>
        </g>
    </g>
</svg>
