<?xml version="1.0" encoding="UTF-8" standalone="no"?>
<!DOCTYPE svg PUBLIC "-//W3C//DTD SVG 1.1//EN" "http://www.w3.org/Graphics/SVG/1.1/DTD/svg11.dtd">
<svg width="100%" height="100%" viewBox="0 0 80 70" version="1.1" xmlns="http://www.w3.org/2000/svg" xmlns:xlink="http://www.w3.org/1999/xlink" xml:space="preserve" xmlns:serif="http://www.serif.com/" style="fill-rule:evenodd;clip-rule:evenodd;stroke-linejoin:round;stroke-miterlimit:2;">
    <g transform="matrix(1,0,0,1,-318,-807.391)">
        <g id="Citizens-monitoring-and-assessing-public-actions-and-services---DIAGRAM" serif:id="Citizens monitoring and assessing public actions and services – DIAGRAM" transform="matrix(0.612282,0,0,0.903226,257.996,820.94)">
            <rect x="98" y="-15" width="130.659" height="77.5" style="fill:none;"/>
            <g id="Citizens-monitoring-public-actions-Info" serif:id="Citizens monitoring public actions Info" transform="matrix(1.63323,0,0,1.10714,-1641.77,-426.964)">
                <g transform="matrix(1,0,0,1,1076.33,422.334)">
                    <path d="M0,-11.866L-9.702,-11.866C-10.3,-11.866 -10.784,-11.382 -10.784,-10.784L-10.784,-1.082C-10.784,-0.485 -10.3,0 -9.702,0L0,0C0.597,0 1.082,-0.485 1.082,-1.082L1.082,-10.784C1.082,-11.382 0.597,-11.866 0,-11.866M-4.851,-10.658C-3.849,-10.658 -3.036,-9.846 -3.036,-8.844C-3.036,-7.842 -3.849,-7.029 -4.851,-7.029C-5.853,-7.029 -6.666,-7.842 -6.666,-8.844C-6.666,-9.846 -5.853,-10.658 -4.851,-10.658M-1.878,-1.208L-7.825,-1.208L-7.825,-4.074C-7.825,-5.333 -6.858,-6.353 -5.665,-6.353L-3.93,-6.353C-2.738,-6.353 -1.878,-5.333 -1.878,-4.074L-1.878,-1.208Z" style="fill:rgb(176,164,106);fill-rule:nonzero;"/>
                </g>
                <g transform="matrix(1,0,0,1,1096.32,439.582)">
                    <path d="M0,-11.865L-9.702,-11.865C-10.3,-11.865 -10.784,-11.381 -10.784,-10.783L-10.784,-1.081C-10.784,-0.484 -10.3,0 -9.702,0L0,0C0.597,0 1.082,-0.484 1.082,-1.081L1.082,-10.783C1.082,-11.381 0.597,-11.865 0,-11.865M-4.851,-10.657C-3.849,-10.657 -3.036,-9.845 -3.036,-8.843C-3.036,-7.841 -3.849,-7.028 -4.851,-7.028C-5.853,-7.028 -6.666,-7.841 -6.666,-8.843C-6.666,-9.845 -5.853,-10.657 -4.851,-10.657M-1.878,-1.207L-7.825,-1.207L-7.825,-4.073C-7.825,-5.332 -6.858,-6.352 -5.665,-6.352L-3.93,-6.352C-2.738,-6.352 -1.878,-5.332 -1.878,-4.073L-1.878,-1.207Z" style="fill:rgb(176,164,106);fill-rule:nonzero;"/>
                </g>
                <g transform="matrix(1,0,0,1,1124.06,439.582)">
                    <path d="M0,-11.865L-9.702,-11.865C-10.3,-11.865 -10.784,-11.381 -10.784,-10.783L-10.784,-1.081C-10.784,-0.484 -10.3,0 -9.702,0L0,0C0.597,0 1.082,-0.484 1.082,-1.081L1.082,-10.783C1.082,-11.381 0.597,-11.865 0,-11.865M-4.851,-10.657C-3.849,-10.657 -3.036,-9.845 -3.036,-8.843C-3.036,-7.841 -3.849,-7.028 -4.851,-7.028C-5.853,-7.028 -6.666,-7.841 -6.666,-8.843C-6.666,-9.845 -5.853,-10.657 -4.851,-10.657M-1.878,-1.207L-7.825,-1.207L-7.825,-4.073C-7.825,-5.332 -6.858,-6.352 -5.665,-6.352L-3.93,-6.352C-2.737,-6.352 -1.878,-5.332 -1.878,-4.073L-1.878,-1.207Z" style="fill:rgb(176,164,106);fill-rule:nonzero;"/>
                </g>
                <g transform="matrix(1,0,0,1,1143.83,422.334)">
                    <path d="M0,-11.866L-9.702,-11.866C-10.3,-11.866 -10.784,-11.382 -10.784,-10.784L-10.784,-1.082C-10.784,-0.485 -10.3,0 -9.702,0L0,0C0.597,0 1.082,-0.485 1.082,-1.082L1.082,-10.784C1.082,-11.382 0.597,-11.866 0,-11.866M-4.851,-10.658C-3.849,-10.658 -3.036,-9.846 -3.036,-8.844C-3.036,-7.842 -3.849,-7.029 -4.851,-7.029C-5.853,-7.029 -6.666,-7.842 -6.666,-8.844C-6.666,-9.846 -5.853,-10.658 -4.851,-10.658M-1.878,-1.208L-7.825,-1.208L-7.825,-4.074C-7.825,-5.333 -6.858,-6.353 -5.665,-6.353L-3.93,-6.353C-2.737,-6.353 -1.878,-5.333 -1.878,-4.074L-1.878,-1.208Z" style="fill:rgb(176,164,106);fill-rule:nonzero;"/>
                </g>
                <g transform="matrix(1,0,0,1,1105.44,399.43)">
                    <path d="M0,16.455C-9.37,16.455 -17.807,10.823 -22.02,1.755C-22.281,1.192 -22.037,0.524 -21.474,0.262C-20.911,0.001 -20.243,0.245 -19.981,0.808C-16.141,9.073 -8.485,14.207 0,14.207C8.485,14.207 16.141,9.073 19.981,0.808C20.243,0.245 20.909,0 21.474,0.262C22.037,0.524 22.281,1.192 22.02,1.755C17.807,10.823 9.37,16.455 0,16.455" style="fill:rgb(176,164,106);fill-rule:nonzero;"/>
                </g>
                <g transform="matrix(1,0,0,1,1100.25,378.082)">
                    <path d="M0,3.601L10.392,3.601L5.196,0L0,3.601Z" style="fill:rgb(176,164,106);fill-rule:nonzero;"/>
                </g>
                <g transform="matrix(1,0,0,1,1105.44,399.748)">
                    <path d="M0,-25.138C-6.942,-25.138 -12.569,-19.511 -12.569,-12.569C-12.569,-5.627 -6.942,0 0,0C6.942,0 12.569,-5.627 12.569,-12.569C12.569,-19.511 6.942,-25.138 0,-25.138M8.119,-5.433L-8.119,-5.433L-8.119,-6.984L8.119,-6.984L8.119,-5.433ZM-6.965,-14.487L-7.254,-15.705L-3.333,-15.705L-3.623,-14.487C-3.69,-14.288 -3.976,-14.146 -4.323,-14.113L-4.323,-9.45C-3.978,-9.421 -3.692,-9.28 -3.626,-9.084L-3.333,-7.857L-7.254,-7.857L-6.962,-9.084C-6.9,-9.268 -6.643,-9.403 -6.327,-9.444L-6.327,-14.119C-6.645,-14.163 -6.902,-14.3 -6.965,-14.487M-1.671,-14.487L-1.96,-15.705L1.961,-15.705L1.671,-14.487C1.604,-14.288 1.318,-14.146 0.971,-14.113L0.971,-9.45C1.316,-9.421 1.602,-9.28 1.668,-9.084L1.961,-7.857L-1.96,-7.857L-1.668,-9.084C-1.606,-9.268 -1.349,-9.403 -1.033,-9.444L-1.033,-14.119C-1.351,-14.163 -1.608,-14.3 -1.671,-14.487M3.672,-14.487L3.382,-15.705L7.303,-15.705L7.013,-14.487C6.947,-14.288 6.661,-14.146 6.314,-14.113L6.314,-9.45C6.659,-9.421 6.944,-9.28 7.01,-9.084L7.303,-7.857L3.382,-7.857L3.675,-9.084C3.737,-9.268 3.993,-9.403 4.31,-9.444L4.31,-14.119C3.991,-14.163 3.735,-14.3 3.672,-14.487M8.119,-16.722L-8.119,-16.722L-8.119,-17.766L0,-23.393L8.119,-17.766L8.119,-16.722Z" style="fill:rgb(176,164,106);fill-rule:nonzero;"/>
                </g>
                <g transform="matrix(-0.759639,-0.650345,-0.650345,0.759639,1125.37,406.536)">
                    <rect x="-8.289" y="3.063" width="9.79" height="1.001" style="fill:rgb(176,164,106);"/>
                </g>
                <g transform="matrix(1,0,0,1,1130.42,416.967)">
                    <path d="M0,-4.701L1.658,0L-3.243,-0.914L0,-4.701Z" style="fill:rgb(176,164,106);fill-rule:nonzero;"/>
                </g>
                <g transform="matrix(-0.348973,-0.937133,-0.937133,0.348973,1120.66,415.392)">
                    <rect x="-6.788" y="4.714" width="10.758" height="1.001" style="fill:rgb(176,164,106);"/>
                </g>
                <g transform="matrix(1,0,0,1,1120.23,426.935)">
                    <path d="M0,-4.916L-0.829,0L-4.672,-3.176L0,-4.916Z" style="fill:rgb(176,164,106);fill-rule:nonzero;"/>
                </g>
                <g transform="matrix(-0.649968,-0.759962,-0.759962,0.649968,1089.93,411.713)">
                    <rect x="2.89" y="-1.33" width="1.006" height="9.789" style="fill:rgb(176,164,106);"/>
                </g>
                <g transform="matrix(1,0,0,1,1083.47,413.181)">
                    <path d="M0,2.872L-4.901,3.787L-3.243,-0.915L0,2.872Z" style="fill:rgb(176,164,106);fill-rule:nonzero;"/>
                </g>
                <g transform="matrix(-0.93678,-0.349918,-0.349918,0.93678,1097.52,414.139)">
                    <rect x="0.903" y="-0.163" width="1.012" height="10.757" style="fill:rgb(176,164,106);"/>
                </g>
                <g transform="matrix(1,0,0,1,1095.09,425.195)">
                    <path d="M0,-1.436L-3.843,1.74L-4.672,-3.176L0,-1.436Z" style="fill:rgb(176,164,106);fill-rule:nonzero;"/>
                </g>
                <g transform="matrix(1,0,0,1,0,-34.004)">
                    <rect x="1104.8" y="432.71" width="1" height="10.474" style="fill:rgb(176,164,106);"/>
                </g>
                <g transform="matrix(1,0,0,1,1107.79,412.767)">
                    <path d="M0,-4.317L-2.493,0L-4.986,-4.317L0,-4.317Z" style="fill:rgb(176,164,106);fill-rule:nonzero;"/>
                </g>
            </g>
        </g>
    </g>
</svg>
