<?xml version="1.0" encoding="UTF-8" standalone="no"?>
<!DOCTYPE svg PUBLIC "-//W3C//DTD SVG 1.1//EN" "http://www.w3.org/Graphics/SVG/1.1/DTD/svg11.dtd">
<svg width="100%" height="100%" viewBox="0 0 80 70" version="1.1" xmlns="http://www.w3.org/2000/svg" xmlns:xlink="http://www.w3.org/1999/xlink" xml:space="preserve" xmlns:serif="http://www.serif.com/" style="fill-rule:evenodd;clip-rule:evenodd;stroke-linejoin:round;stroke-miterlimit:2;">
    <g transform="matrix(1,0,0,1,-318.63,-717.391)">
        <g id="Citizens-making-decisions---DIAGRAM" serif:id="Citizens making decisions – DIAGRAM" transform="matrix(0.612282,0,0,0.903226,258.626,730.94)">
            <rect x="98" y="-15" width="130.659" height="77.5" style="fill:none;"/>
            <g id="Citizens-making-decisions-Info" serif:id="Citizens making decisions Info" transform="matrix(1.63323,0,0,1.10714,-1600.56,-673.75)">
                <g transform="matrix(1,0,0,1,1080.22,622.378)">
                    <path d="M0,16.455C-9.369,16.455 -17.808,10.822 -22.021,1.756C-22.282,1.193 -22.037,0.524 -21.475,0.263C-20.911,0 -20.243,0.246 -19.981,0.809C-16.142,9.073 -8.485,14.207 0,14.207C8.485,14.207 16.142,9.073 19.981,0.809C20.243,0.246 20.911,0 21.475,0.263C22.037,0.524 22.282,1.193 22.021,1.756C17.808,10.822 9.369,16.455 0,16.455" style="fill:rgb(255,131,0);fill-rule:nonzero;"/>
                </g>
                <g transform="matrix(1,0,0,1,1075.02,600.941)">
                    <path d="M0,3.601L10.392,3.601L5.196,0L0,3.601Z" style="fill:rgb(255,131,0);fill-rule:nonzero;"/>
                </g>
                <g transform="matrix(1,0,0,1,1080.22,622.607)">
                    <path d="M0,-25.138C-6.942,-25.138 -12.569,-19.511 -12.569,-12.569C-12.569,-5.627 -6.942,0 0,0C6.942,0 12.569,-5.627 12.569,-12.569C12.569,-19.511 6.942,-25.138 0,-25.138M8.119,-5.433L-8.119,-5.433L-8.119,-6.984L8.119,-6.984L8.119,-5.433ZM-6.965,-14.487L-7.254,-15.705L-3.333,-15.705L-3.623,-14.487C-3.69,-14.288 -3.976,-14.146 -4.323,-14.113L-4.323,-9.45C-3.978,-9.421 -3.692,-9.28 -3.626,-9.084L-3.333,-7.857L-7.254,-7.857L-6.962,-9.084C-6.9,-9.268 -6.643,-9.403 -6.327,-9.444L-6.327,-14.119C-6.645,-14.163 -6.902,-14.3 -6.965,-14.487M-1.671,-14.487L-1.96,-15.705L1.961,-15.705L1.671,-14.487C1.604,-14.288 1.318,-14.146 0.971,-14.113L0.971,-9.45C1.316,-9.421 1.602,-9.28 1.668,-9.084L1.961,-7.857L-1.96,-7.857L-1.668,-9.084C-1.606,-9.268 -1.349,-9.403 -1.033,-9.444L-1.033,-14.119C-1.351,-14.163 -1.608,-14.3 -1.671,-14.487M3.672,-14.487L3.382,-15.705L7.303,-15.705L7.013,-14.487C6.947,-14.288 6.661,-14.146 6.314,-14.113L6.314,-9.45C6.659,-9.421 6.944,-9.28 7.01,-9.084L7.303,-7.857L3.382,-7.857L3.675,-9.084C3.737,-9.268 3.993,-9.403 4.31,-9.444L4.31,-14.119C3.991,-14.163 3.735,-14.3 3.672,-14.487M8.119,-16.722L-8.119,-16.722L-8.119,-17.766L0,-23.393L8.119,-17.766L8.119,-16.722Z" style="fill:rgb(255,131,0);fill-rule:nonzero;"/>
                </g>
                <g transform="matrix(1,0,0,1,1051.1,645.282)">
                    <path d="M0,-11.865L-9.702,-11.865C-10.3,-11.865 -10.784,-11.381 -10.784,-10.783L-10.784,-1.081C-10.784,-0.484 -10.3,0 -9.702,0L0,0C0.597,0 1.082,-0.484 1.082,-1.081L1.082,-10.783C1.082,-11.381 0.597,-11.865 0,-11.865M-4.851,-10.657C-3.849,-10.657 -3.036,-9.845 -3.036,-8.843C-3.036,-7.841 -3.849,-7.028 -4.851,-7.028C-5.853,-7.028 -6.666,-7.841 -6.666,-8.843C-6.666,-9.845 -5.853,-10.657 -4.851,-10.657M-1.878,-1.207L-7.825,-1.207L-7.825,-4.073C-7.825,-5.332 -6.858,-6.352 -5.665,-6.352L-3.93,-6.352C-2.738,-6.352 -1.878,-5.332 -1.878,-4.073L-1.878,-1.207Z" style="fill:rgb(255,131,0);fill-rule:nonzero;"/>
                </g>
                <g transform="matrix(1,0,0,1,1071.09,662.532)">
                    <path d="M0,-11.866L-9.702,-11.866C-10.3,-11.866 -10.784,-11.382 -10.784,-10.784L-10.784,-1.082C-10.784,-0.485 -10.3,0 -9.702,0L0,0C0.597,0 1.082,-0.485 1.082,-1.082L1.082,-10.784C1.082,-11.382 0.597,-11.866 0,-11.866M-4.851,-10.658C-3.849,-10.658 -3.036,-9.846 -3.036,-8.844C-3.036,-7.842 -3.849,-7.029 -4.851,-7.029C-5.853,-7.029 -6.666,-7.842 -6.666,-8.844C-6.666,-9.846 -5.853,-10.658 -4.851,-10.658M-1.878,-1.208L-7.825,-1.208L-7.825,-4.074C-7.825,-5.333 -6.858,-6.353 -5.665,-6.353L-3.93,-6.353C-2.738,-6.353 -1.878,-5.333 -1.878,-4.074L-1.878,-1.208Z" style="fill:rgb(255,131,0);fill-rule:nonzero;"/>
                </g>
                <g transform="matrix(1,0,0,1,1098.83,662.532)">
                    <path d="M0,-11.866L-9.702,-11.866C-10.3,-11.866 -10.784,-11.382 -10.784,-10.784L-10.784,-1.082C-10.784,-0.485 -10.3,0 -9.702,0L0,0C0.597,0 1.082,-0.485 1.082,-1.082L1.082,-10.784C1.082,-11.382 0.597,-11.866 0,-11.866M-4.851,-10.658C-3.849,-10.658 -3.036,-9.846 -3.036,-8.844C-3.036,-7.842 -3.849,-7.029 -4.851,-7.029C-5.853,-7.029 -6.666,-7.842 -6.666,-8.844C-6.666,-9.846 -5.853,-10.658 -4.851,-10.658M-1.878,-1.208L-7.825,-1.208L-7.825,-4.074C-7.825,-5.333 -6.858,-6.353 -5.665,-6.353L-3.93,-6.353C-2.737,-6.353 -1.878,-5.333 -1.878,-4.074L-1.878,-1.208Z" style="fill:rgb(255,131,0);fill-rule:nonzero;"/>
                </g>
                <g transform="matrix(1,0,0,1,1118.6,645.282)">
                    <path d="M0,-11.865L-9.702,-11.865C-10.3,-11.865 -10.784,-11.381 -10.784,-10.783L-10.784,-1.081C-10.784,-0.484 -10.3,0 -9.702,0L0,0C0.597,0 1.082,-0.484 1.082,-1.081L1.082,-10.783C1.082,-11.381 0.597,-11.865 0,-11.865M-4.851,-10.657C-3.849,-10.657 -3.036,-9.845 -3.036,-8.843C-3.036,-7.841 -3.849,-7.028 -4.851,-7.028C-5.853,-7.028 -6.666,-7.841 -6.666,-8.843C-6.666,-9.845 -5.853,-10.657 -4.851,-10.657M-1.878,-1.207L-7.825,-1.207L-7.825,-4.073C-7.825,-5.332 -6.858,-6.352 -5.665,-6.352L-3.93,-6.352C-2.737,-6.352 -1.878,-5.332 -1.878,-4.073L-1.878,-1.207Z" style="fill:rgb(255,131,0);fill-rule:nonzero;"/>
                </g>
                <g transform="matrix(1,0,0,1,0,423.104)">
                    <rect x="1079.57" y="204.156" width="1" height="10.474" style="fill:rgb(255,131,0);"/>
                </g>
                <g transform="matrix(1,0,0,1,1077.58,623.672)">
                    <path d="M0,4.317L2.493,0L4.986,4.317L0,4.317Z" style="fill:rgb(255,131,0);fill-rule:nonzero;"/>
                </g>
                <g transform="matrix(-0.505796,-0.862653,-0.862653,0.505796,1060.55,639.88)">
                    <rect x="3.656" y="-2.094" width="1.004" height="10.229" style="fill:rgb(255,131,0);"/>
                </g>
                <g transform="matrix(1,0,0,1,1058.37,637.716)">
                    <path d="M0,-4.265L4.985,-4.3L2.523,0.035L0,-4.265Z" style="fill:rgb(255,131,0);fill-rule:nonzero;"/>
                </g>
                <g transform="matrix(-0.928821,-0.37053,-0.37053,0.928821,1071.04,642.812)">
                    <rect x="0.84" y="-0.162" width="1.001" height="9.753" style="fill:rgb(255,131,0);"/>
                </g>
                <g transform="matrix(1,0,0,1,1067.27,640.68)">
                    <path d="M0,1.24L3.915,-1.847L4.631,3.087L0,1.24Z" style="fill:rgb(255,131,0);fill-rule:nonzero;"/>
                </g>
                <g transform="matrix(-0.862464,-0.506118,-0.506118,0.862464,1102.51,633.111)">
                    <rect x="-9.273" y="2.52" width="10.229" height="1" style="fill:rgb(255,131,0);"/>
                </g>
                <g transform="matrix(1,0,0,1,1099.52,633.417)">
                    <path d="M0,4.335L-2.462,0L2.523,0.035L0,4.335Z" style="fill:rgb(255,131,0);fill-rule:nonzero;"/>
                </g>
                <g transform="matrix(-0.370542,-0.928816,-0.928816,0.370542,1096.24,643.701)">
                    <rect x="-6.219" y="4.215" width="9.754" height="1" style="fill:rgb(255,131,0);"/>
                </g>
                <g transform="matrix(1,0,0,1,1088.51,638.833)">
                    <path d="M0,4.934L0.716,0L4.631,3.087L0,4.934Z" style="fill:rgb(255,131,0);fill-rule:nonzero;"/>
                </g>
            </g>
        </g>
    </g>
</svg>
