<?xml version="1.0" encoding="UTF-8" standalone="no"?>
<!DOCTYPE svg PUBLIC "-//W3C//DTD SVG 1.1//EN" "http://www.w3.org/Graphics/SVG/1.1/DTD/svg11.dtd">
<svg width="100%" height="100%" viewBox="0 0 51 51" version="1.1" xmlns="http://www.w3.org/2000/svg" xmlns:xlink="http://www.w3.org/1999/xlink" xml:space="preserve" xmlns:serif="http://www.serif.com/" style="fill-rule:evenodd;clip-rule:evenodd;stroke-linejoin:round;stroke-miterlimit:2;">
    <g transform="matrix(1,0,0,1,-5.68434e-14,-628.391)">
        <g id="Citizens-scrutinising-proposals---ICON" serif:id="Citizens scrutinising proposals – ICON" transform="matrix(0.784615,0,0,0.799632,-221.262,605.025)">
            <rect x="282" y="29.221" width="65" height="63.779" style="fill:none;"/>
            <clipPath id="_clip1">
                <rect x="282" y="29.221" width="65" height="63.779"/>
            </clipPath>
            <g clip-path="url(#_clip1)">
                <g transform="matrix(1.27451,0,0,1.25057,341.088,93.015)">
                    <path d="M0,-51.024L-41.721,-51.024C-44.29,-51.024 -46.373,-48.941 -46.373,-46.373L-46.373,-4.652C-46.373,-2.083 -44.29,0 -41.721,0L0,0C2.569,0 4.651,-2.083 4.651,-4.652L4.651,-46.373C4.651,-48.941 2.569,-51.024 0,-51.024M-12.038,-46.552L-6.54,-41.054L-11.145,-41.054C-11.638,-41.054 -12.038,-41.454 -12.038,-41.947L-12.038,-46.552ZM-29.318,-14.032L-30.228,-10.139L-30.228,-3.273L-38.283,-3.273L-38.283,-10.469L-40.9,-17.199C-41.297,-18.219 -41.281,-19.352 -40.858,-20.361L-39.268,-24.145C-38.928,-24.955 -38.342,-25.638 -37.592,-26.095L-36.368,-26.844L-36.368,-17.27C-36.368,-16.869 -36.043,-16.544 -35.642,-16.544C-35.241,-16.544 -34.916,-16.869 -34.916,-17.27L-34.916,-27.042C-34.916,-28.099 -34.058,-28.956 -33.001,-28.956C-31.943,-28.956 -31.086,-28.099 -31.086,-27.042L-31.086,-21.099L-29.442,-16.379C-29.179,-15.624 -29.136,-14.81 -29.318,-14.032M-12.946,-7.234L-28.775,-7.234L-28.775,-10.205L-27.918,-14.138C-27.745,-14.932 -27.807,-15.76 -28.096,-16.519L-29.964,-21.43L-29.964,-27.108C-29.964,-31.729 -35.197,-29.46 -35.197,-29.46L-35.197,-45.763C-35.197,-46.217 -34.829,-46.585 -34.375,-46.585L-13.238,-46.585L-13.238,-40.634C-13.238,-40.141 -12.838,-39.741 -12.345,-39.741L-6.525,-39.741L-6.525,-29.46C-6.525,-29.46 -11.758,-31.729 -11.758,-27.108L-11.758,-21.43L-13.626,-16.519C-13.915,-15.76 -13.977,-14.932 -13.804,-14.138L-12.946,-10.205L-12.946,-7.234ZM-0.822,-17.199L-3.439,-10.469L-3.439,-3.273L-11.494,-3.273L-11.494,-10.139L-12.404,-14.032C-12.586,-14.81 -12.543,-15.624 -12.28,-16.379L-10.636,-21.099L-10.636,-27.042C-10.636,-28.099 -9.778,-28.956 -8.721,-28.956C-7.663,-28.956 -6.806,-28.099 -6.806,-27.042L-6.806,-17.27C-6.806,-16.869 -6.481,-16.544 -6.08,-16.544C-5.679,-16.544 -5.354,-16.869 -5.354,-17.27L-5.354,-26.844L-4.129,-26.095C-3.38,-25.638 -2.794,-24.955 -2.454,-24.145L-0.864,-20.361C-0.44,-19.352 -0.425,-18.219 -0.822,-17.199" style="fill:rgb(255,80,0);fill-rule:nonzero;"/>
                </g>
            </g>
        </g>
    </g>
</svg>
