<?xml version="1.0" encoding="UTF-8" standalone="no"?>
<!DOCTYPE svg PUBLIC "-//W3C//DTD SVG 1.1//EN" "http://www.w3.org/Graphics/SVG/1.1/DTD/svg11.dtd">
<svg width="100%" height="100%" viewBox="0 0 51 51" version="1.1" xmlns="http://www.w3.org/2000/svg" xmlns:xlink="http://www.w3.org/1999/xlink" xml:space="preserve" xmlns:serif="http://www.serif.com/" style="fill-rule:evenodd;clip-rule:evenodd;stroke-linejoin:round;stroke-miterlimit:2;">
    <g transform="matrix(1,0,0,1,-5.68434e-14,-717.391)">
        <g id="Citizens-making-decisions---ICON" serif:id="Citizens making decisions – ICON" transform="matrix(0.784615,0,0,0.799632,-221.262,694.025)">
            <rect x="282" y="29.221" width="65" height="63.779" style="fill:none;"/>
            <clipPath id="_clip1">
                <rect x="282" y="29.221" width="65" height="63.779"/>
            </clipPath>
            <g clip-path="url(#_clip1)">
                <g transform="matrix(1.27451,0,0,1.25057,341.088,93.015)">
                    <g id="Citizens-making-decisions-Icon" serif:id="Citizens making decisions Icon">
                        <path d="M0,-51.024L-41.721,-51.024C-44.29,-51.024 -46.373,-48.941 -46.373,-46.373L-46.373,-4.652C-46.373,-2.083 -44.29,0 -41.721,0L-28.033,0L-28.033,-7.71C-31.152,-9.891 -33.79,-14.369 -34.216,-18.352L-34.216,-28.844C-34.216,-29.902 -33.358,-30.759 -32.3,-30.759L-31.721,-30.759C-30.664,-30.759 -29.806,-29.902 -29.806,-28.844L-29.806,-21.031L-28.879,-21.031L-28.879,-41.748C-28.879,-42.868 -27.971,-43.775 -26.852,-43.775L-26.595,-43.775C-25.476,-43.775 -24.568,-42.868 -24.568,-41.748L-24.568,-27.878L-23.787,-27.784L-23.787,-45.069C-23.787,-46.188 -22.88,-47.096 -21.76,-47.096L-21.503,-47.096C-20.384,-47.096 -19.476,-46.188 -19.476,-45.069L-19.476,-27.019L-18.544,-26.926L-18.544,-41.748C-18.544,-42.868 -17.637,-43.775 -16.518,-43.775L-16.261,-43.775C-15.141,-43.775 -14.234,-42.868 -14.234,-41.748L-14.234,-26.161L-13.358,-26.068L-13.358,-36.389C-13.358,-37.508 -12.451,-38.416 -11.331,-38.416L-11.075,-38.416C-9.955,-38.416 -9.048,-37.508 -9.048,-36.389L-9.048,-15.004C-9.048,-12.678 -10.084,-8.566 -11.716,-7.155L-11.716,0L0,0C2.569,0 4.651,-2.083 4.651,-4.652L4.651,-46.373C4.651,-48.941 2.569,-51.024 0,-51.024" style="fill:rgb(255,131,0);fill-rule:nonzero;"/>
                    </g>
                </g>
            </g>
        </g>
    </g>
</svg>
