<?xml version="1.0" encoding="UTF-8" standalone="no"?>
<!DOCTYPE svg PUBLIC "-//W3C//DTD SVG 1.1//EN" "http://www.w3.org/Graphics/SVG/1.1/DTD/svg11.dtd">
<svg width="100%" height="100%" viewBox="0 0 51 51" version="1.1" xmlns="http://www.w3.org/2000/svg" xmlns:xlink="http://www.w3.org/1999/xlink" xml:space="preserve" xmlns:serif="http://www.serif.com/" style="fill-rule:evenodd;clip-rule:evenodd;stroke-linejoin:round;stroke-miterlimit:2;">
    <g transform="matrix(1,0,0,1,-0.6296,-271)">
        <g id="Citizens-providing-ideas---ICON" serif:id="Citizens providing ideas – ICON" transform="matrix(0.784615,0,0,0.799632,-220.632,247.634)">
            <rect x="282" y="29.221" width="65" height="63.779" style="fill:none;"/>
            <clipPath id="_clip1">
                <rect x="282" y="29.221" width="65" height="63.779"/>
            </clipPath>
            <g clip-path="url(#_clip1)">
                <g id="Citizens-providing-ideas-Icon" serif:id="Citizens providing ideas Icon" transform="matrix(1.27451,0,0,1.25057,-163.562,-395.832)">
                    <g transform="matrix(1,0,0,1,395.944,390.91)">
                        <path d="M0,-51.024L-41.721,-51.024C-44.29,-51.024 -46.372,-48.942 -46.372,-46.373L-46.372,-4.652C-46.372,-2.083 -44.29,0 -41.721,0L0,0C2.569,0 4.651,-2.083 4.651,-4.652L4.651,-46.373C4.651,-48.942 2.569,-51.024 0,-51.024" style="fill:rgb(255,143,66);fill-rule:nonzero;"/>
                    </g>
                    <g transform="matrix(1,0,0,1,348.965,68.8863)">
                        <path d="M26.373,284.854L26.373,284.852L26.31,284.852L26.31,284.854C21.184,284.888 17.038,289.51 17.038,294.686C17.038,297.777 18.515,300.518 20.796,302.234C21.207,302.537 21.669,305.006 22.111,307.018L21.995,307.018C21.871,307.018 21.752,307.065 21.668,307.145C21.583,307.227 21.541,307.335 21.55,307.446L22.103,314.183C22.112,314.292 22.17,314.393 22.264,314.462C22.288,314.479 22.58,314.688 23.148,314.917C23.701,315.804 24.923,316.424 26.341,316.424C27.76,316.424 28.981,315.804 29.534,314.917C30.102,314.688 30.394,314.479 30.419,314.462C30.513,314.393 30.571,314.292 30.58,314.183L31.133,307.446C31.142,307.335 31.099,307.227 31.015,307.145C30.93,307.065 30.812,307.018 30.688,307.018L30.571,307.018C31.013,305.006 31.476,302.537 31.887,302.234C34.167,300.518 35.644,297.777 35.644,294.686C35.644,289.51 31.499,284.888 26.373,284.854ZM41.462,303.85L39.1,302.578C38.683,302.354 38.202,302.304 37.748,302.441C37.294,302.578 36.92,302.883 36.696,303.299C36.471,303.716 36.422,304.196 36.557,304.653C36.694,305.106 36.999,305.48 37.416,305.705L39.778,306.977C40.037,307.117 40.327,307.19 40.618,307.19C40.794,307.19 40.966,307.164 41.13,307.114C41.585,306.978 41.96,306.672 42.184,306.254C42.408,305.837 42.456,305.358 42.32,304.904C42.184,304.449 41.879,304.075 41.462,303.85ZM14.927,302.441C14.473,302.304 13.993,302.354 13.575,302.578L11.214,303.85C10.797,304.075 10.492,304.449 10.356,304.904C10.219,305.358 10.268,305.838 10.493,306.255C10.718,306.673 11.092,306.978 11.543,307.114C11.709,307.165 11.882,307.19 12.058,307.19C12.348,307.19 12.639,307.117 12.899,306.977L15.259,305.706C15.676,305.481 15.981,305.107 16.118,304.653L16.118,304.652C16.255,304.197 16.205,303.717 15.981,303.3C15.756,302.883 15.383,302.579 14.927,302.441ZM44.935,294.409L42.253,294.409C41.274,294.409 40.478,295.206 40.478,296.185C40.478,297.165 41.274,297.962 42.253,297.962L44.935,297.962C45.913,297.962 46.71,297.165 46.71,296.185C46.71,295.206 45.913,294.409 44.935,294.409ZM12.198,296.186C12.198,295.207 11.401,294.41 10.422,294.41L7.74,294.41C6.761,294.41 5.965,295.207 5.965,296.186C5.965,297.164 6.761,297.962 7.74,297.962L10.422,297.962C11.401,297.962 12.198,297.164 12.198,296.186ZM40.599,289.931C40.767,289.981 40.939,290.006 41.109,290.006C41.4,290.006 41.691,289.933 41.95,289.793L44.311,288.521C44.729,288.296 45.034,287.922 45.17,287.468C45.307,287.013 45.258,286.533 45.033,286.117C44.809,285.698 44.434,285.393 43.981,285.257C43.531,285.12 43.049,285.168 42.627,285.394L40.267,286.666C39.848,286.891 39.543,287.265 39.407,287.72L39.407,287.721C39.271,288.174 39.32,288.654 39.545,289.072C39.77,289.49 40.144,289.794 40.599,289.931ZM8.363,288.521L10.725,289.793C10.985,289.933 11.275,290.006 11.566,290.006C11.737,290.006 11.908,289.981 12.076,289.931C12.531,289.794 12.906,289.49 13.13,289.072C13.355,288.655 13.404,288.174 13.268,287.718C13.132,287.264 12.826,286.891 12.409,286.666L10.047,285.394C9.625,285.168 9.146,285.119 8.696,285.257C8.241,285.393 7.867,285.698 7.642,286.116L7.642,286.117C7.417,286.535 7.368,287.014 7.505,287.467C7.641,287.921 7.946,288.296 8.363,288.521ZM18.38,283.469C18.782,283.219 19.063,282.825 19.17,282.362C19.277,281.899 19.196,281.423 18.944,281.023L17.522,278.748C17.271,278.345 16.877,278.065 16.416,277.959C15.952,277.85 15.477,277.931 15.075,278.185C14.673,278.437 14.393,278.829 14.286,279.291C14.18,279.753 14.26,280.23 14.512,280.632L15.934,282.905C16.186,283.308 16.579,283.588 17.039,283.693C17.169,283.724 17.305,283.74 17.442,283.74C17.774,283.74 18.099,283.646 18.38,283.469ZM34.294,283.468C34.578,283.646 34.903,283.739 35.234,283.739C35.371,283.739 35.506,283.724 35.637,283.693C36.098,283.587 36.49,283.307 36.742,282.906L38.165,280.631C38.416,280.229 38.496,279.753 38.39,279.291C38.283,278.829 38.003,278.437 37.602,278.185C37.197,277.932 36.72,277.853 36.261,277.959C35.798,278.066 35.405,278.346 35.154,278.747L33.732,281.021C33.48,281.422 33.4,281.899 33.506,282.362C33.613,282.825 33.893,283.218 34.294,283.468ZM26.338,281.184C27.317,281.184 28.113,280.386 28.113,279.408L28.113,276.726C28.113,275.747 27.317,274.951 26.338,274.951C25.359,274.951 24.562,275.747 24.562,276.726L24.562,279.408C24.562,280.386 25.359,281.184 26.338,281.184Z" style="fill:white;fill-rule:nonzero;"/>
                    </g>
                </g>
            </g>
        </g>
    </g>
</svg>
