<?xml version="1.0" encoding="UTF-8" standalone="no"?>
<!DOCTYPE svg PUBLIC "-//W3C//DTD SVG 1.1//EN" "http://www.w3.org/Graphics/SVG/1.1/DTD/svg11.dtd">
<svg width="100%" height="100%" viewBox="0 0 80 70" version="1.1" xmlns="http://www.w3.org/2000/svg" xmlns:xlink="http://www.w3.org/1999/xlink" xml:space="preserve" xmlns:serif="http://www.serif.com/" style="fill-rule:evenodd;clip-rule:evenodd;stroke-linejoin:round;stroke-miterlimit:2;">
    <g transform="matrix(1,0,0,1,-318.63,0)">
        <g id="Informing-Citizens---DIAGRAM" serif:id="Informing Citizens – DIAGRAM" transform="matrix(0.612282,0,0,0.903226,258.626,13.5484)">
            <rect x="98" y="-15" width="130.659" height="77.5" style="fill:none;"/>
            <g id="Informing-citizens-Info" serif:id="Informing citizens Info" transform="matrix(1.63323,0,0,1.10714,-105.653,-420.753)">
                <g transform="matrix(1,0,0,1,164.909,394.138)">
                    <path d="M0,-25.138C-6.942,-25.138 -12.569,-19.51 -12.569,-12.569C-12.569,-5.627 -6.942,0 0,0C6.942,0 12.569,-5.627 12.569,-12.569C12.569,-19.51 6.942,-25.138 0,-25.138M8.119,-5.433L-8.119,-5.433L-8.119,-6.984L8.119,-6.984L8.119,-5.433ZM-6.965,-14.486L-7.254,-15.704L-3.333,-15.704L-3.623,-14.486C-3.69,-14.288 -3.976,-14.146 -4.323,-14.113L-4.323,-9.45C-3.978,-9.421 -3.692,-9.28 -3.626,-9.084L-3.333,-7.857L-7.254,-7.857L-6.962,-9.084C-6.9,-9.268 -6.643,-9.403 -6.327,-9.444L-6.327,-14.119C-6.645,-14.163 -6.902,-14.3 -6.965,-14.486M-1.671,-14.486L-1.96,-15.704L1.961,-15.704L1.671,-14.486C1.604,-14.288 1.318,-14.146 0.971,-14.113L0.971,-9.45C1.316,-9.421 1.602,-9.28 1.668,-9.084L1.961,-7.857L-1.96,-7.857L-1.668,-9.084C-1.606,-9.268 -1.35,-9.403 -1.033,-9.444L-1.033,-14.119C-1.351,-14.163 -1.608,-14.3 -1.671,-14.486M3.672,-14.486L3.382,-15.704L7.303,-15.704L7.013,-14.486C6.947,-14.288 6.661,-14.146 6.314,-14.113L6.314,-9.45C6.659,-9.421 6.944,-9.28 7.01,-9.084L7.303,-7.857L3.382,-7.857L3.675,-9.084C3.737,-9.268 3.993,-9.403 4.31,-9.444L4.31,-14.119C3.991,-14.163 3.735,-14.3 3.672,-14.486M8.119,-16.722L-8.119,-16.722L-8.119,-17.766L0,-23.393L8.119,-17.766L8.119,-16.722Z" style="fill:rgb(236,0,68);fill-rule:nonzero;"/>
                </g>
                <g transform="matrix(1,0,0,1,26.0635,366.487)">
                    <path d="M129.723,55.621L120.021,55.621C119.423,55.621 118.939,56.105 118.939,56.703L118.939,66.405C118.939,67.002 119.423,67.487 120.021,67.487L129.723,67.487C130.32,67.487 130.805,67.002 130.805,66.405L130.805,56.703C130.805,56.105 130.32,55.621 129.723,55.621ZM157.463,55.621L147.761,55.621C147.163,55.621 146.679,56.105 146.679,56.703L146.679,66.405C146.679,67.002 147.163,67.487 147.761,67.487L157.463,67.487C158.06,67.487 158.545,67.002 158.545,66.405L158.545,56.703C158.545,56.105 158.06,55.621 157.463,55.621ZM127.845,66.279L121.898,66.279L121.898,63.413C121.898,62.154 122.865,61.134 124.058,61.134L125.793,61.134C126.985,61.134 127.845,62.154 127.845,63.413L127.845,66.279ZM155.585,66.279L149.638,66.279L149.638,63.413C149.638,62.154 150.605,61.134 151.798,61.134L153.533,61.134C154.725,61.134 155.585,62.154 155.585,63.413L155.585,66.279ZM124.872,56.829C125.874,56.829 126.687,57.641 126.687,58.643C126.687,59.645 125.874,60.458 124.872,60.458C123.87,60.458 123.057,59.645 123.057,58.643C123.057,57.641 123.87,56.829 124.872,56.829ZM152.612,56.829C153.614,56.829 154.427,57.641 154.427,58.643C154.427,59.645 153.614,60.458 152.612,60.458C151.61,60.458 150.797,59.645 150.797,58.643C150.797,57.641 151.61,56.829 152.612,56.829ZM121.484,36.066C119.628,34.065 118.049,31.721 116.825,29.088C116.564,28.525 116.808,27.857 117.371,27.596C117.934,27.334 118.602,27.579 118.864,28.141C122.704,36.406 130.36,41.54 138.845,41.54C147.33,41.54 154.986,36.406 158.826,28.141C159.088,27.578 159.755,27.333 160.319,27.596C160.882,27.857 161.126,28.525 160.865,29.088C159.618,31.773 158,34.157 156.098,36.182L162.522,41.683L163.819,40.169L165.477,44.87L160.576,43.956L161.872,42.442L155.397,36.899C153.344,38.918 150.993,40.542 148.441,41.704L151.761,50.618L153.628,49.922L152.799,54.838L148.956,51.662L150.823,50.967L147.521,42.1C144.801,43.201 141.872,43.788 138.845,43.788C135.741,43.788 132.739,43.17 129.959,42.013L126.624,50.966L128.491,51.662L124.648,54.838L123.819,49.922L125.686,50.617L129.041,41.608C126.524,40.432 124.207,38.805 122.184,36.791L115.576,42.443L116.872,43.956L111.971,44.871L113.629,40.169L114.921,41.679L121.484,36.066ZM109.728,38.372L100.026,38.372C99.428,38.372 98.944,38.856 98.944,39.454L98.944,49.156C98.944,49.753 99.428,50.238 100.026,50.238L109.728,50.238C110.325,50.238 110.81,49.753 110.81,49.156L110.81,39.454C110.81,38.856 110.325,38.372 109.728,38.372ZM177.233,38.372L167.531,38.372C166.933,38.372 166.449,38.856 166.449,39.454L166.449,49.156C166.449,49.753 166.933,50.238 167.531,50.238L177.233,50.238C177.83,50.238 178.315,49.753 178.315,49.156L178.315,39.454C178.315,38.856 177.83,38.372 177.233,38.372ZM107.85,49.03L101.903,49.03L101.903,46.164C101.903,44.905 102.87,43.885 104.063,43.885L105.798,43.885C106.99,43.885 107.85,44.905 107.85,46.164L107.85,49.03ZM175.355,49.03L169.408,49.03L169.408,46.164C169.408,44.905 170.375,43.885 171.568,43.885L173.303,43.885C174.496,43.885 175.355,44.905 175.355,46.164L175.355,49.03ZM104.877,39.58C105.879,39.58 106.692,40.392 106.692,41.394C106.692,42.396 105.879,43.209 104.877,43.209C103.875,43.209 103.062,42.396 103.062,41.394C103.062,40.392 103.875,39.58 104.877,39.58ZM172.382,39.58C173.384,39.58 174.197,40.392 174.197,41.394C174.197,42.396 173.384,43.209 172.382,43.209C171.38,43.209 170.567,42.396 170.567,41.394C170.567,40.392 171.38,39.58 172.382,39.58ZM139.345,36.203L141.338,36.203L138.845,40.52L136.352,36.203L138.345,36.203L138.345,25.503L139.345,25.503L139.345,36.203ZM133.649,9.586L144.041,9.586L138.845,5.985L133.649,9.586Z" style="fill:rgb(236,0,68);fill-rule:nonzero;"/>
                </g>
            </g>
        </g>
    </g>
</svg>
