<?xml version="1.0" encoding="UTF-8" standalone="no"?>
<!DOCTYPE svg PUBLIC "-//W3C//DTD SVG 1.1//EN" "http://www.w3.org/Graphics/SVG/1.1/DTD/svg11.dtd">
<svg width="100%" height="100%" viewBox="0 0 80 70" version="1.1" xmlns="http://www.w3.org/2000/svg" xmlns:xlink="http://www.w3.org/1999/xlink" xml:space="preserve" xmlns:serif="http://www.serif.com/" style="fill-rule:evenodd;clip-rule:evenodd;stroke-linejoin:round;stroke-miterlimit:2;">
    <g transform="matrix(1,0,0,1,-318.63,-90)">
        <g id="Issue-framing---DIAGRAM" serif:id="Issue framing – DIAGRAM" transform="matrix(0.612282,0,0,0.903226,258.626,103.548)">
            <rect x="98" y="-15" width="130.659" height="77.5" style="fill:none;"/>
            <g transform="matrix(1.63323,0,0,1.10714,-63.0853,-114.643)">
                <path d="M127.752,137.658L125.9,136.92L129.815,133.834L130.531,138.767L128.673,138.026L125.633,145.666L129.723,145.666C130.32,145.666 130.805,146.15 130.805,146.748L130.805,156.45C130.805,157.047 130.32,157.531 129.723,157.531L120.021,157.531C119.423,157.531 118.939,157.047 118.939,156.45L118.939,146.748C118.939,146.15 119.423,145.666 120.021,145.666L124.566,145.666L127.752,137.658ZM148.991,138.029L147.14,138.767L147.856,133.833L151.771,136.92L149.92,137.659L153.114,145.666L157.463,145.666C158.06,145.666 158.545,146.15 158.545,146.748L158.545,156.45C158.545,157.047 158.06,157.531 157.463,157.531L147.761,157.531C147.163,157.531 146.679,157.047 146.679,156.45L146.679,146.748C146.679,146.15 147.163,145.666 147.761,145.666L152.038,145.666L148.991,138.029ZM127.845,156.324L121.898,156.324L121.898,153.458C121.898,152.199 122.865,151.179 124.058,151.179L125.793,151.179C126.985,151.179 127.845,152.199 127.845,153.458L127.845,156.324ZM155.585,156.324L149.638,156.324L149.638,153.458C149.638,152.199 150.605,151.179 151.798,151.179L153.533,151.179C154.725,151.179 155.585,152.199 155.585,153.458L155.585,156.324ZM141.414,151.099L141.414,149.105L145.731,151.598L141.414,154.091L141.414,152.099L135.987,152.099L135.987,154.091L131.67,151.598L135.987,149.105L135.987,151.099L141.414,151.099ZM168.819,143.804L167.497,142.313L172.382,141.315L170.804,146.044L169.477,144.547L163.293,150.036L164.616,151.528L159.732,152.526L161.309,147.797L162.635,149.293L168.819,143.804ZM108.214,144.552L106.892,146.043L105.315,141.314L110.199,142.312L108.877,143.804L115.065,149.288L116.387,147.797L117.965,152.526L113.08,151.528L114.402,150.036L108.214,144.552ZM124.872,146.874C125.874,146.874 126.687,147.686 126.687,148.688C126.687,149.69 125.874,150.503 124.872,150.503C123.87,150.503 123.057,149.69 123.057,148.688C123.057,147.686 123.87,146.874 124.872,146.874ZM152.612,146.874C153.614,146.874 154.427,147.686 154.427,148.688C154.427,149.69 153.614,150.503 152.612,150.503C151.61,150.503 150.797,149.69 150.797,148.688C150.797,147.686 151.61,146.874 152.612,146.874ZM118.005,130.17L116.996,128.451L121.981,128.416L119.519,132.751L118.51,131.031L110.81,135.551L110.81,139.201C110.81,139.798 110.325,140.283 109.728,140.283L100.026,140.283C99.428,140.283 98.944,139.798 98.944,139.201L98.944,129.499C98.944,128.901 99.428,128.417 100.026,128.417L109.728,128.417C110.325,128.417 110.81,128.901 110.81,129.499L110.81,134.393L118.005,130.17ZM159.16,131.033L158.151,132.752L155.689,128.417L160.674,128.452L159.666,130.17L166.449,134.15L166.449,129.499C166.449,128.901 166.933,128.417 167.531,128.417L177.233,128.417C177.83,128.417 178.315,128.901 178.315,129.499L178.315,139.201C178.315,139.798 177.83,140.283 177.233,140.283L167.531,140.283C166.933,140.283 166.449,139.798 166.449,139.201L166.449,135.309L159.16,131.033ZM175.355,139.075L169.408,139.075L169.408,136.209C169.408,134.95 170.375,133.93 171.568,133.93L173.303,133.93C174.496,133.93 175.355,134.95 175.355,136.209L175.355,139.075ZM107.85,139.075L101.903,139.075L101.903,136.209C101.903,134.95 102.87,133.93 104.063,133.93L105.798,133.93C106.99,133.93 107.85,134.95 107.85,136.209L107.85,139.075ZM139.201,131.582C147.544,131.441 155.041,126.336 158.826,118.187C159.088,117.624 159.756,117.378 160.32,117.641C160.882,117.902 161.127,118.571 160.865,119.134C156.653,128.2 148.214,133.833 138.845,133.833C129.476,133.833 121.037,128.2 116.824,119.134C116.563,118.571 116.808,117.902 117.37,117.641C117.934,117.378 118.602,117.624 118.863,118.187C122.606,126.241 129.974,131.323 138.201,131.576L138.201,122.989L136.208,122.989L138.701,118.672L141.194,122.989L139.201,122.989L139.201,131.582ZM172.382,129.625C173.384,129.625 174.197,130.437 174.197,131.439C174.197,132.442 173.384,133.254 172.382,133.254C171.38,133.254 170.567,132.442 170.567,131.439C170.567,130.437 171.38,129.625 172.382,129.625ZM104.877,129.625C105.879,129.625 106.692,130.437 106.692,131.439C106.692,132.442 105.879,133.254 104.877,133.254C103.875,133.254 103.062,132.442 103.062,131.439C103.062,130.437 103.875,129.625 104.877,129.625ZM138.845,92.469C131.903,92.469 126.276,98.096 126.276,105.038C126.276,111.98 131.903,117.607 138.845,117.607C145.787,117.607 151.414,111.98 151.414,105.038C151.414,98.096 145.787,92.469 138.845,92.469ZM146.964,112.174L130.726,112.174L130.726,110.623L146.964,110.623L146.964,112.174ZM131.88,103.121L131.591,101.902L135.512,101.902L135.222,103.121C135.155,103.319 134.869,103.461 134.522,103.494L134.522,108.157C134.867,108.186 135.153,108.327 135.219,108.523L135.512,109.75L131.591,109.75L131.883,108.523C131.945,108.339 132.202,108.204 132.518,108.163L132.518,103.488C132.2,103.444 131.943,103.307 131.88,103.121ZM137.174,103.121L136.885,101.902L140.806,101.902L140.516,103.121C140.449,103.319 140.163,103.461 139.816,103.494L139.816,108.157C140.161,108.186 140.447,108.327 140.513,108.523L140.806,109.75L136.885,109.75L137.177,108.523C137.239,108.339 137.495,108.204 137.812,108.163L137.812,103.488C137.494,103.444 137.237,103.307 137.174,103.121ZM142.517,103.121L142.227,101.902L146.148,101.902L145.858,103.121C145.792,103.319 145.506,103.461 145.159,103.494L145.159,108.157C145.504,108.186 145.789,108.327 145.855,108.523L146.148,109.75L142.227,109.75L142.52,108.523C142.582,108.339 142.838,108.204 143.155,108.163L143.155,103.488C142.836,103.444 142.58,103.307 142.517,103.121ZM146.964,100.885L130.726,100.885L130.726,99.841L138.845,94.214L146.964,99.841L146.964,100.885ZM133.649,99.542L144.041,99.542L138.845,95.941L133.649,99.542Z" style="fill:rgb(199,176,0);"/>
            </g>
        </g>
    </g>
</svg>
