<?xml version="1.0" encoding="UTF-8" standalone="no"?>
<!DOCTYPE svg PUBLIC "-//W3C//DTD SVG 1.1//EN" "http://www.w3.org/Graphics/SVG/1.1/DTD/svg11.dtd">
<svg width="100%" height="100%" viewBox="0 0 51 51" version="1.1" xmlns="http://www.w3.org/2000/svg" xmlns:xlink="http://www.w3.org/1999/xlink" xml:space="preserve" xmlns:serif="http://www.serif.com/" style="fill-rule:evenodd;clip-rule:evenodd;stroke-linejoin:round;stroke-miterlimit:2;">
    <g transform="matrix(1,0,0,1,-0.6296,-90)">
        <g id="Issue-framing---ICON" serif:id="Issue framing – ICON" transform="matrix(0.784615,0,0,0.799632,-220.632,66.6342)">
            <rect x="282" y="29.221" width="65" height="63.779" style="fill:none;"/>
            <clipPath id="_clip1">
                <rect x="282" y="29.221" width="65" height="63.779"/>
            </clipPath>
            <g clip-path="url(#_clip1)">
                <g transform="matrix(1.27451,0,0,1.25057,341.087,93.015)">
                    <path d="M0,-51.024L-41.721,-51.024C-44.29,-51.024 -46.372,-48.942 -46.372,-46.373L-46.372,-4.652C-46.372,-2.083 -44.29,0 -41.721,0L0,0C2.569,0 4.651,-2.083 4.651,-4.652L4.651,-46.373C4.651,-48.942 2.569,-51.024 0,-51.024M-12.395,-38.287L-10.745,-40.924C-10.465,-41.372 -10.027,-41.684 -9.512,-41.803C-9,-41.922 -8.468,-41.834 -8.018,-41.551C-7.569,-41.271 -7.257,-40.833 -7.139,-40.317C-7.02,-39.802 -7.109,-39.272 -7.39,-38.823L-9.039,-36.187C-9.321,-35.738 -9.759,-35.426 -10.274,-35.308C-10.418,-35.274 -10.569,-35.257 -10.72,-35.257C-11.089,-35.257 -11.451,-35.361 -11.768,-35.559C-12.215,-35.839 -12.527,-36.278 -12.647,-36.793C-12.765,-37.307 -12.676,-37.838 -12.395,-38.287M-23.017,-43.31C-23.017,-44.401 -22.129,-45.289 -21.037,-45.289C-19.946,-45.289 -19.058,-44.401 -19.058,-43.31L-19.058,-40.2C-19.058,-39.109 -19.946,-38.22 -21.037,-38.22C-22.129,-38.22 -23.017,-39.109 -23.017,-40.2L-23.017,-43.31ZM-34.937,-40.318C-34.818,-40.833 -34.505,-41.271 -34.058,-41.551C-33.609,-41.833 -33.077,-41.922 -32.563,-41.802C-32.049,-41.684 -31.611,-41.372 -31.33,-40.924L-29.68,-38.286C-29.399,-37.839 -29.31,-37.308 -29.429,-36.793C-29.547,-36.278 -29.859,-35.84 -30.308,-35.559C-30.624,-35.361 -30.986,-35.257 -31.355,-35.257C-31.505,-35.257 -31.656,-35.274 -31.803,-35.308C-32.317,-35.426 -32.755,-35.738 -33.036,-36.187L-34.686,-38.824C-34.967,-39.273 -35.055,-39.803 -34.937,-40.318M-36.424,-29.031C-36.674,-28.565 -37.092,-28.225 -37.6,-28.074C-37.783,-28.018 -37.976,-27.989 -38.169,-27.989C-38.493,-27.989 -38.817,-28.071 -39.106,-28.227L-41.845,-29.702C-42.31,-29.953 -42.65,-30.37 -42.802,-30.876C-42.954,-31.382 -42.9,-31.917 -42.649,-32.383C-42.397,-32.849 -41.981,-33.189 -41.475,-33.341C-40.974,-33.492 -40.437,-33.439 -39.968,-33.188L-37.228,-31.713C-36.763,-31.462 -36.423,-31.045 -36.271,-30.539C-36.119,-30.032 -36.174,-29.497 -36.424,-29.031M-20.876,-10.708C-21.45,-10.708 -22.047,-10.74 -22.739,-10.81L-28.521,-5.028L-28.521,-12.329C-33.117,-14.431 -35.958,-18.275 -35.958,-22.426C-35.958,-28.888 -29.192,-34.144 -20.876,-34.144C-12.56,-34.144 -5.795,-28.888 -5.795,-22.426C-5.795,-15.965 -12.56,-10.708 -20.876,-10.708M0.726,-30.875C0.575,-30.37 0.235,-29.953 -0.23,-29.702L-2.969,-28.227C-3.258,-28.071 -3.582,-27.989 -3.906,-27.989C-4.098,-27.989 -4.289,-28.018 -4.476,-28.073C-4.983,-28.225 -5.4,-28.565 -5.651,-29.031C-5.902,-29.497 -5.956,-30.032 -5.804,-30.538C-5.652,-31.045 -5.312,-31.462 -4.846,-31.713L-2.109,-33.188C-1.636,-33.44 -1.1,-33.494 -0.599,-33.34C-0.095,-33.191 0.322,-32.851 0.574,-32.384C0.825,-31.917 0.879,-31.382 0.726,-30.875" style="fill:rgb(199,176,0);fill-rule:nonzero;"/>
                </g>
            </g>
        </g>
    </g>
</svg>
