<?xml version="1.0" encoding="UTF-8" standalone="no"?>
<!DOCTYPE svg PUBLIC "-//W3C//DTD SVG 1.1//EN" "http://www.w3.org/Graphics/SVG/1.1/DTD/svg11.dtd">
<svg width="100%" height="100%" viewBox="0 0 51 51" version="1.1" xmlns="http://www.w3.org/2000/svg" xmlns:xlink="http://www.w3.org/1999/xlink" xml:space="preserve"  style="fill-rule:evenodd;clip-rule:evenodd;stroke-linejoin:round;stroke-miterlimit:2;">
    <g transform="matrix(1,0,0,1,-0.6296,-181)">
        <g id="Citizens-providing-information---ICON" transform="matrix(0.784615,0,0,0.799632,-220.632,157.634)">
            <rect x="282" y="29.221" width="65" height="63.779" style="fill:none;"/>
            <clipPath id="_clip1">
                <rect x="282" y="29.221" width="65" height="63.779"/>
            </clipPath>
            <g clip-path="url(#_clip1)">
                <g transform="matrix(1.27451,0,0,1.25057,281.198,-197.133)">
                    <path d="M46.99,180.988L5.269,180.988C2.7,180.988 0.618,183.07 0.618,185.639L0.618,227.36C0.618,229.929 2.7,232.012 5.269,232.012L46.99,232.012C49.559,232.012 51.641,229.929 51.641,227.36L51.641,185.639C51.641,183.07 49.559,180.988 46.99,180.988ZM26.129,226.186C15.275,226.186 6.444,217.354 6.444,206.5C6.444,195.645 15.275,186.814 26.129,186.814C36.984,186.814 45.815,195.645 45.815,206.5C45.815,217.354 36.984,226.186 26.129,226.186ZM26.129,190.93C17.544,190.93 10.56,197.915 10.56,206.499C10.56,215.084 17.544,222.069 26.129,222.069C34.714,222.069 41.698,215.084 41.698,206.499C41.698,197.915 34.714,190.93 26.129,190.93ZM29.772,218.165C29.558,218.165 28.958,218.112 27.974,218.005C27.374,217.941 26.69,217.909 25.92,217.909C25.534,217.909 24.968,217.952 24.219,218.037C23.47,218.122 22.913,218.165 22.55,218.165C21.973,218.165 21.502,217.968 21.139,217.572C20.774,217.177 20.593,216.669 20.593,216.047C20.593,214.827 21.106,214.217 22.133,214.217L22.967,214.411C23.053,214.432 23.128,214.442 23.191,214.442C23.577,214.442 23.77,213.844 23.77,212.645L23.77,207.446C23.77,206.227 23.587,205.617 23.224,205.617C23.16,205.617 22.967,205.67 22.647,205.778C22.433,205.821 22.262,205.841 22.133,205.841C21.106,205.841 20.593,205.243 20.593,204.045C20.593,203.402 20.774,202.884 21.139,202.488C21.502,202.092 21.984,201.894 22.583,201.894C22.818,201.894 23.16,201.926 23.609,201.99C24.358,202.097 24.957,202.151 25.406,202.151C25.771,202.151 26.241,202.108 26.819,202.023C27.396,201.937 27.718,201.894 27.782,201.894C28.38,201.894 28.68,202.312 28.68,203.146L28.68,212.806C28.68,213.898 28.883,214.442 29.29,214.442C29.375,214.442 29.53,214.406 29.755,214.33C29.98,214.255 30.168,214.217 30.316,214.217C31.215,214.217 31.665,214.784 31.665,215.915C31.665,217.416 31.033,218.165 29.772,218.165ZM23.882,195.684C24.449,195.117 25.139,194.834 25.952,194.834C26.764,194.834 27.455,195.117 28.022,195.684C28.589,196.251 28.872,196.942 28.872,197.754C28.872,198.568 28.589,199.257 28.022,199.824C27.455,200.391 26.764,200.674 25.952,200.674C25.161,200.674 24.475,200.386 23.898,199.808C23.321,199.23 23.032,198.545 23.032,197.754C23.032,196.942 23.316,196.251 23.882,195.684Z" style="fill:rgb(255,143,66);fill-rule:nonzero;"/>
                </g>
            </g>
        </g>
    </g>
</svg>
