<?xml version="1.0" encoding="UTF-8" standalone="no"?>
<!DOCTYPE svg PUBLIC "-//W3C//DTD SVG 1.1//EN" "http://www.w3.org/Graphics/SVG/1.1/DTD/svg11.dtd">
<svg width="100%" height="100%" viewBox="0 0 51 51" version="1.1" xmlns="http://www.w3.org/2000/svg" xmlns:xlink="http://www.w3.org/1999/xlink" xml:space="preserve"  style="fill-rule:evenodd;clip-rule:evenodd;stroke-linejoin:round;stroke-miterlimit:2;">
    <g transform="matrix(1,0,0,1,0,-538.391)">
        <g id="Citizens-developing-proposals---ICON" transform="matrix(0.784615,0,0,0.799632,-221.262,515.025)">
            <rect x="282" y="29.221" width="65" height="63.779" style="fill:none;"/>
            <clipPath id="_clip1">
                <rect x="282" y="29.221" width="65" height="63.779"/>
            </clipPath>
            <g clip-path="url(#_clip1)">
                <g transform="matrix(1.27451,0,0,1.25057,282.015,-644.063)">
                    <path d="M46.349,538.367L4.628,538.367C2.059,538.367 -0.024,540.449 -0.024,543.018L-0.024,584.739C-0.024,587.308 2.059,589.391 4.628,589.391L46.349,589.391C48.918,589.391 51,587.308 51,584.739L51,543.018C51,540.449 48.918,538.367 46.349,538.367ZM38.972,555.382L38.972,577.498C38.972,578.896 37.835,580.033 36.437,580.033L9.202,580.033C9.027,580.033 8.857,580.016 8.692,579.982C7.537,579.745 6.667,578.721 6.667,577.498L6.667,559.037L10.782,559.037C12.256,559.037 13.456,557.838 13.456,556.363L13.456,552.848L13.584,552.847L36.437,552.847C36.666,552.847 36.884,552.887 37.095,552.945C38.173,553.237 38.972,554.213 38.972,555.382ZM38.287,550.944L13.872,550.944L13.872,549.466C13.872,548.522 14.637,547.757 15.581,547.757L40.945,547.756C41.215,547.756 41.472,547.804 41.721,547.872C42.99,548.215 43.932,549.366 43.932,550.743L43.932,573.208C43.932,574.855 42.592,576.194 40.945,576.194L40.961,553.62C40.962,552.142 39.764,550.944 38.287,550.944ZM9.202,552.847L11.345,552.848L11.345,555.863C11.345,556.536 10.798,557.083 10.125,557.083L6.667,557.083L6.667,555.382C6.667,553.984 7.804,552.847 9.202,552.847Z" style="fill:rgb(203,183,59);fill-rule:nonzero;"/>
                </g>
            </g>
        </g>
    </g>
</svg>
