<?xml version="1.0" encoding="UTF-8" standalone="no"?>
<!DOCTYPE svg PUBLIC "-//W3C//DTD SVG 1.1//EN" "http://www.w3.org/Graphics/SVG/1.1/DTD/svg11.dtd">
<svg width="100%" height="100%" viewBox="0 0 51 51" version="1.1" xmlns="http://www.w3.org/2000/svg" xmlns:xlink="http://www.w3.org/1999/xlink" xml:space="preserve" style="fill-rule:evenodd;clip-rule:evenodd;stroke-linejoin:round;stroke-miterlimit:2;">
    <g transform="matrix(1,0,0,1,-0.6296,0)">
        <g id="Informing-Citizens---ICON" transform="matrix(0.784615,0,0,0.799632,-220.632,-23.3658)">
            <rect x="282" y="29.221" width="65" height="63.779" style="fill:none;"/>
            <clipPath id="_clip1">
                <rect x="282" y="29.221" width="65" height="63.779"/>
            </clipPath>
            <g clip-path="url(#_clip1)">
                <g transform="matrix(1.27451,0,0,1.25057,341.087,93.015)">
                    <path d="M0,-51.024L-41.721,-51.024C-44.29,-51.024 -46.372,-48.942 -46.372,-46.373L-46.372,-4.652C-46.372,-2.083 -44.29,0 -41.721,0L0,0C2.569,0 4.651,-2.083 4.651,-4.652L4.651,-46.373C4.651,-48.942 2.569,-51.024 0,-51.024M-5.635,-20.556L-5.635,-11.609C-5.635,-10.119 -6.533,-9.724 -7.631,-10.732L-13.409,-16.034C-14.506,-17.042 -16.624,-17.866 -18.114,-17.866L-24.728,-17.866L-28.461,-7.158C-28.707,-6.689 -29.193,-6.395 -29.723,-6.395L-34.654,-6.395C-35.727,-6.395 -36.416,-7.535 -35.917,-8.485L-31.026,-17.866L-33.541,-17.866C-34.899,-17.866 -36.029,-18.881 -36.219,-20.188L-38.869,-20.188L-38.869,-31.823L-36.245,-31.823C-36.191,-33.267 -34.997,-34.431 -33.541,-34.431L-18.114,-34.431C-16.624,-34.431 -14.506,-35.256 -13.409,-36.263L-7.631,-41.566C-6.533,-42.573 -5.635,-42.179 -5.635,-40.688L-5.635,-31.742C-3.21,-31.038 -1.436,-28.801 -1.436,-26.149C-1.436,-23.496 -3.21,-21.259 -5.635,-20.556" style="fill:rgb(236,0,68);fill-rule:nonzero;"/>
                </g>
            </g>
        </g>
    </g>
</svg>
